<svg viewBox="0 0 24 24" width="24px" height="24px" class="d Vb UmNoP"><path d="M12 2c.539 0 .976.437.976.976v1.032c1.779.21 3.268 1 4.356 2.222 1.271 1.426 1.937 3.372 1.97 5.512.013.755.016 3.706.016 5.381h1.463v1.951H15.77a4.4 4.4 0 01-.336.924 3.545 3.545 0 01-1.2 1.382c-.589.391-1.332.62-2.234.62s-1.645-.229-2.233-.621a3.538 3.538 0 01-1.2-1.382 4.4 4.4 0 01-.336-.924H3.22v-1.951h1.463c0-1.669.002-4.602.015-5.372-.007-2.149.663-4.098 1.944-5.523 1.098-1.222 2.601-2.009 4.383-2.219V2.976A.975.975 0 0112 2zM6.634 17.122h10.732c0-1.675-.003-4.611-.016-5.351-.026-1.763-.573-3.232-1.475-4.245-.891-1-2.187-1.625-3.876-1.625-1.692 0-3.007.627-3.906 1.627-.909 1.012-1.452 2.473-1.444 4.223 0 .001-.015 3.696-.015 5.371zm3.653 1.951l.024.052c.125.249.297.471.538.63.234.156.59.294 1.151.294.562 0 .917-.138 1.151-.294a1.601 1.601 0 00.561-.682h-3.425z"></path></svg>