<svg viewBox="0 0 24 24" width="24px" height="24px" class="d Vb UmNoP"><path d="M17.166 15.54h-9.1c-.293 0-1.011-.914-1.011-1.517V13.01h12.923L22 4.922H7.055c0-1.033-.9-2.527-2.527-2.527H2v2.022h2.528c.356 0 .5.466.505.505l.001 9.102c0 .929.579 2.192 1.479 2.932a3.011 3.011 0 00-.468 1.618 3.035 3.035 0 003.033 3.032 3.035 3.035 0 002.86-4.045h2.369a3.035 3.035 0 002.859 4.045 3.035 3.035 0 003.033-3.032 3.036 3.036 0 00-3.033-3.034zM7.055 6.943h12.354l-1.011 4.044H7.055V6.943zm2.023 12.641a1.012 1.012 0 010-2.024 1.013 1.013 0 010 2.024zm8.088 0a1.012 1.012 0 110-2.024 1.012 1.012 0 010 2.024z"></path></svg>