<svg width="24" height="24" viewBox="0 0 24 24" fill="none" xmlns="http://www.w3.org/2000/svg">
<path d="M4.5 14.4C5.88071 14.4 7 13.2807 7 11.9C7 10.5193 5.88071 9.40002 4.5 9.40002C3.11929 9.40002 2 10.5193 2 11.9C2 13.2807 3.11929 14.4 4.5 14.4Z" fill="#5D006C"/>
<path d="M19.5 14.4C20.8807 14.4 22 13.2807 22 11.9C22 10.5193 20.8807 9.40002 19.5 9.40002C18.1193 9.40002 17 10.5193 17 11.9C17 13.2807 18.1193 14.4 19.5 14.4Z" fill="#5D006C"/>
<path d="M12 14.4C13.3807 14.4 14.5 13.2807 14.5 11.9C14.5 10.5193 13.3807 9.40002 12 9.40002C10.6193 9.40002 9.5 10.5193 9.5 11.9C9.5 13.2807 10.6193 14.4 12 14.4Z" fill="#5D006C"/>
</svg>
