<svg width="24" height="24" viewBox="0 0 24 24" fill="none" xmlns="http://www.w3.org/2000/svg">
<path d="M20.587 12.139V4.14404H3.424V12.13C2.9797 12.4865 2.62109 12.9381 2.37463 13.4516C2.12817 13.9651 2.00015 14.5274 2 15.097V19.852H3.906V17.947H20.094V19.857H22V15.097C21.9999 14.5298 21.873 13.9698 21.6285 13.458C21.384 12.9462 21.0282 12.4956 20.587 12.139ZM18.681 6.04904V8.83004C17.8366 8.25485 16.8376 7.94939 15.816 7.95404C14.251 7.95404 12.864 8.64404 12 9.70304C11.136 8.64404 9.748 7.95404 8.182 7.95404C7.112 7.95404 6.126 8.27804 5.331 8.82004V6.04904H18.681V6.04904ZM18.423 11.297C18.346 11.292 18.268 11.285 18.189 11.285H13.218C13.656 10.447 14.655 9.85904 15.816 9.85904C16.984 9.85904 17.989 10.452 18.423 11.297V11.297ZM10.78 11.285H5.812C5.731 11.285 5.653 11.292 5.574 11.297C6.008 10.453 7.012 9.85904 8.18 9.85904C9.343 9.85904 10.343 10.447 10.78 11.285V11.285ZM3.906 16.04V15.097C3.906 14.046 4.761 13.192 5.812 13.192H18.188C19.239 13.192 20.093 14.046 20.093 15.097V16.04H3.906Z" fill="#427067"/>
</svg>
