<svg width="24" height="24" viewBox="0 0 24 24" fill="none" xmlns="http://www.w3.org/2000/svg">
<path d="M18.753 21.459L13.251 15.955L10.401 18.806L8.73801 17.144L4.42301 21.459L3.08001 20.115L7.39601 15.799L3.39201 11.796C2.94947 11.3561 2.59857 10.8328 2.35963 10.2564C2.12069 9.68003 1.99846 9.06196 2.00001 8.43799C2.00001 7.16899 2.49401 5.97699 3.39201 5.07999L4.22601 4.24499L11.588 11.607L12.454 10.741C11.355 9.02199 11.677 6.76899 13.366 5.07999L15.904 2.54199L17.247 3.88599L14.709 6.42299C13.924 7.20999 13.455 8.32599 13.857 9.33899L18.28 4.91699L19.623 6.26099L15.194 10.689C15.504 10.819 15.834 10.877 16.171 10.853C16.817 10.81 17.47 10.489 18.009 9.94899C18.8923 9.06727 19.773 8.18294 20.651 7.29599L22 8.63099C22 8.63099 20.759 9.88599 19.353 11.291C18.488 12.156 17.402 12.674 16.296 12.747C15.4125 12.808 14.5334 12.576 13.795 12.087L12.931 12.949L20.097 20.115L18.753 21.459V21.459ZM4.29101 6.99499C4.03392 7.43234 3.89889 7.93067 3.90001 8.43799C3.90001 9.19999 4.19601 9.91599 4.73501 10.453L10.401 16.12L11.907 14.613L4.29101 6.99499V6.99499Z" fill="#5D6C00"/>
</svg>
