<svg viewBox="0 0 24 24" width="24px" height="24px" class="d Vb UmNoP"><path d="M3.366 21.984a1.36 1.36 0 01-1.067-.513 1.352 1.352 0 01-.266-1.148l1.445-6.637 10.249-10.22c1.625-1.62 4.352-1.939 6.153-.674a4.8 4.8 0 012.098 3.518 4.756 4.756 0 01-1.384 3.833l-10.326 10.32-6.902 1.521zm2.038-7.245l-1.069 4.906 4.875-1.103 7.909-7.902-3.796-3.797-7.919 7.896zm9.41-9.382l3.794 3.795.499-.499a2.662 2.662 0 00.775-2.144c-.076-.81-.502-1.514-1.196-1.982-1.029-.724-2.549-.49-3.472.431l-.4.399z"></path></svg>