<svg width="24" height="24" viewBox="0 0 24 24" fill="none" xmlns="http://www.w3.org/2000/svg">
<path d="M12 9.5C12.5523 9.5 13 9.05228 13 8.5C13 7.94772 12.5523 7.5 12 7.5C11.4477 7.5 11 7.94772 11 8.5C11 9.05228 11.4477 9.5 12 9.5Z" fill="#A13000"/>
<path d="M12 13C12.5523 13 13 12.5523 13 12C13 11.4477 12.5523 11 12 11C11.4477 11 11 11.4477 11 12C11 12.5523 11.4477 13 12 13Z" fill="#A13000"/>
<path d="M12 16.5C12.5523 16.5 13 16.0523 13 15.5C13 14.9477 12.5523 14.5 12 14.5C11.4477 14.5 11 14.9477 11 15.5C11 16.0523 11.4477 16.5 12 16.5Z" fill="#A13000"/>
<path d="M20 6.5V8C18.5 8.7 17.5 10.3 17.5 12C17.5 13.8 18.5 15.3 20 16V17.5H4V16C5.5 15.3 6.5 13.7 6.5 12C6.5 10.2 5.5 8.7 4 8V6.5H20ZM22 4.5H2V9.5C3.4 9.5 4.5 10.6 4.5 12C4.5 13.4 3.4 14.5 2 14.5V19.5H22V14.5C20.6 14.5 19.5 13.4 19.5 12C19.5 10.6 20.6 9.5 22 9.5V4.5Z" fill="#A13000"/>
</svg>
