<svg width="24" height="24" viewBox="0 0 24 24" fill="none" xmlns="http://www.w3.org/2000/svg">
<path d="M12 2C6.5 2 2 6.5 2 12C2 17.5 6.5 22 12 22C17.5 22 22 17.5 22 12C22 6.5 17.5 2 12 2ZM4.1 13H7.4C7.4 15.2 7.9 17.3 8.8 19.3C6.2 18.2 4.4 15.8 4.1 13V13ZM7.4 11H4.1C4.4 8.2 6.2 5.8 8.8 4.7C8 6.7 7.5 8.8 7.4 11V11ZM12 20C11 20 9.6 17.2 9.4 13H14.6C14.4 17.2 13 20 12 20V20ZM9.4 11C9.6 6.8 11 4 12 4C13 4 14.4 6.8 14.6 11H9.4ZM19.9 11H16.5C16.5 8.8 16 6.7 15.1 4.7C17.8 5.8 19.6 8.2 19.9 11ZM15.2 19.3C16 17.3 16.5 15.2 16.599 13H20C19.6 15.8 17.8 18.2 15.2 19.3Z" fill="#3C3043"/>
</svg>
