<svg width="24" height="24" viewBox="0 0 24 24" fill="none" xmlns="http://www.w3.org/2000/svg">
<path d="M12.001 2L2.09698 8.6V22H21.904V8.6L12.001 2ZM19.923 20.021H4.07699V9.66L12.001 4.38L19.923 9.66V20.021V20.021Z" fill="#004C6C"/>
<path d="M9.03598 10.627C8.24888 10.6277 7.49421 10.9406 6.93745 11.497C6.3807 12.0534 6.0673 12.8079 6.06598 13.595C6.06677 14.3825 6.37991 15.1376 6.93669 15.6945C7.49347 16.2515 8.24844 16.5649 9.03598 16.566C9.64829 16.5643 10.2451 16.3731 10.7443 16.0185C11.2435 15.664 11.6207 15.1635 11.824 14.586H13.976V16.565H15.956V14.586H17.938V12.607H11.823C11.6196 12.0296 11.2426 11.5293 10.7436 11.1748C10.2446 10.8203 9.64809 10.6289 9.03598 10.627V10.627ZM9.03598 14.586C8.90237 14.5921 8.7689 14.5711 8.64362 14.5242C8.51835 14.4774 8.40387 14.4056 8.3071 14.3133C8.21033 14.2209 8.13327 14.11 8.08057 13.987C8.02788 13.8641 8.00064 13.7318 8.0005 13.598C8.00037 13.4642 8.02734 13.3319 8.07978 13.2088C8.13223 13.0858 8.20907 12.9746 8.30565 12.8821C8.40224 12.7896 8.51657 12.7176 8.64175 12.6705C8.76693 12.6233 8.90036 12.6021 9.03398 12.608C9.2886 12.6191 9.52909 12.7281 9.7054 12.9121C9.88171 13.0962 9.98025 13.3411 9.9805 13.596C9.98076 13.8509 9.88272 14.096 9.70678 14.2804C9.53085 14.4648 9.29057 14.5742 9.03598 14.586V14.586Z" fill="#004C6C"/>
</svg>
